<svg width="40" height="40" viewBox="0 0 40 40" fill="none" xmlns="http://www.w3.org/2000/svg">
<path opacity="0.2" d="M35 10L33.1 20.4469C32.9953 21.0229 32.6918 21.544 32.2424 21.9192C31.793 22.2944 31.2261 22.4999 30.6406 22.5H11.0234L8.75 10H35Z" fill="#5994BE"/>
<path d="M35.9594 9.19844C35.842 9.05802 35.6953 8.94509 35.5295 8.8676C35.3637 8.79011 35.183 8.74997 35 8.75H9.79375L8.84375 3.52656C8.79142 3.23854 8.63967 2.97802 8.41495 2.79042C8.19023 2.60282 7.9068 2.50004 7.61406 2.5H3.75C3.41848 2.5 3.10054 2.6317 2.86612 2.86612C2.6317 3.10054 2.5 3.41848 2.5 3.75C2.5 4.08152 2.6317 4.39946 2.86612 4.63388C3.10054 4.8683 3.41848 5 3.75 5H6.5625L10.5562 26.9203C10.6739 27.5704 10.9612 28.1779 11.3891 28.6812C10.7985 29.2328 10.3723 29.9372 10.1576 30.7163C9.94292 31.4953 9.9482 32.3186 10.1729 33.0948C10.3975 33.871 10.8328 34.5699 11.4304 35.1139C12.0279 35.6578 12.7645 36.0256 13.5584 36.1766C14.3522 36.3275 15.1724 36.2555 15.9279 35.9688C16.6834 35.682 17.3447 35.1916 17.8385 34.552C18.3323 33.9123 18.6393 33.1484 18.7255 32.3449C18.8116 31.5414 18.6735 30.7298 18.3266 30H25.4234C25.1438 30.5854 24.9991 31.2262 25 31.875C25 32.7403 25.2566 33.5862 25.7373 34.3056C26.2181 35.0251 26.9013 35.5858 27.7008 35.917C28.5002 36.2481 29.3799 36.3347 30.2285 36.1659C31.0772 35.9971 31.8567 35.5804 32.4686 34.9686C33.0804 34.3567 33.4971 33.5772 33.6659 32.7285C33.8347 31.8799 33.7481 31.0002 33.417 30.2008C33.0858 29.4013 32.5251 28.7181 31.8056 28.2373C31.0862 27.7566 30.2403 27.5 29.375 27.5H14.2453C13.9526 27.5 13.6691 27.3972 13.4444 27.2096C13.2197 27.022 13.068 26.7615 13.0156 26.4734L12.5203 23.75H30.6453C31.5235 23.7499 32.3738 23.4415 33.048 22.8787C33.7221 22.3159 34.1774 21.5344 34.3344 20.6703L36.2344 10.2234C36.2665 10.0429 36.2586 9.85745 36.211 9.6803C36.1635 9.50316 36.0776 9.33865 35.9594 9.19844ZM16.25 31.875C16.25 32.2458 16.14 32.6084 15.934 32.9167C15.728 33.225 15.4351 33.4654 15.0925 33.6073C14.7499 33.7492 14.3729 33.7863 14.0092 33.714C13.6455 33.6416 13.3114 33.463 13.0492 33.2008C12.787 32.9386 12.6084 32.6045 12.536 32.2408C12.4637 31.8771 12.5008 31.5001 12.6427 31.1575C12.7846 30.8149 13.025 30.522 13.3333 30.316C13.6416 30.11 14.0042 30 14.375 30C14.8723 30 15.3492 30.1975 15.7008 30.5492C16.0525 30.9008 16.25 31.3777 16.25 31.875ZM31.25 31.875C31.25 32.2458 31.14 32.6084 30.934 32.9167C30.728 33.225 30.4351 33.4654 30.0925 33.6073C29.7499 33.7492 29.3729 33.7863 29.0092 33.714C28.6455 33.6416 28.3114 33.463 28.0492 33.2008C27.7869 32.9386 27.6084 32.6045 27.536 32.2408C27.4637 31.8771 27.5008 31.5001 27.6427 31.1575C27.7846 30.8149 28.025 30.522 28.3333 30.316C28.6416 30.11 29.0042 30 29.375 30C29.8723 30 30.3492 30.1975 30.7008 30.5492C31.0525 30.9008 31.25 31.3777 31.25 31.875ZM31.875 20.2234C31.8225 20.5122 31.6701 20.7734 31.4444 20.9611C31.2187 21.1488 30.9342 21.2511 30.6406 21.25H12.0656L10.2484 11.25H33.5016L31.875 20.2234Z" fill="#5994BE"/>
</svg>
