<svg width="80" height="80" viewBox="0 0 80 80" fill="none" xmlns="http://www.w3.org/2000/svg">
<rect width="80" height="80" rx="40" fill="#F7F5E1"/>
<path opacity="0.2" d="M45 40C45 40.9889 44.7068 41.9556 44.1573 42.7779C43.6079 43.6001 42.827 44.241 41.9134 44.6194C40.9998 44.9978 39.9945 45.0969 39.0245 44.9039C38.0546 44.711 37.1637 44.2348 36.4645 43.5355C35.7652 42.8363 35.289 41.9454 35.0961 40.9755C34.9031 40.0055 35.0022 39.0002 35.3806 38.0866C35.759 37.173 36.3999 36.3921 37.2221 35.8427C38.0444 35.2932 39.0111 35 40 35C41.3261 35 42.5979 35.5268 43.5355 36.4645C44.4732 37.4021 45 38.6739 45 40ZM51.25 30C51.5146 31.5614 52.2584 33.0019 53.3783 34.1217C54.4981 35.2416 55.9386 35.9854 57.5 36.25V30H51.25ZM51.25 50H57.5V43.75C55.9386 44.0146 54.4981 44.7584 53.3783 45.8783C52.2584 46.9981 51.5146 48.4386 51.25 50ZM22.5 43.75V50H28.75C28.4854 48.4386 27.7416 46.9981 26.6217 45.8783C25.5019 44.7584 24.0614 44.0146 22.5 43.75ZM22.5 36.25C24.0614 35.9854 25.5019 35.2416 26.6217 34.1217C27.7416 33.0019 28.4854 31.5614 28.75 30H22.5V36.25Z" fill="#BEB459"/>
<path d="M40 33.75C38.7639 33.75 37.5555 34.1166 36.5277 34.8033C35.4999 35.4901 34.6988 36.4662 34.2258 37.6082C33.7527 38.7503 33.6289 40.0069 33.8701 41.2193C34.1112 42.4317 34.7065 43.5453 35.5806 44.4194C36.4547 45.2935 37.5683 45.8888 38.7807 46.1299C39.9931 46.3711 41.2497 46.2473 42.3918 45.7742C43.5338 45.3012 44.5099 44.5001 45.1967 43.4723C45.8834 42.4445 46.25 41.2361 46.25 40C46.25 38.3424 45.5915 36.7527 44.4194 35.5806C43.2473 34.4085 41.6576 33.75 40 33.75ZM40 43.75C39.2583 43.75 38.5333 43.5301 37.9166 43.118C37.2999 42.706 36.8193 42.1203 36.5355 41.4351C36.2516 40.7498 36.1774 39.9958 36.3221 39.2684C36.4667 38.541 36.8239 37.8728 37.3483 37.3483C37.8728 36.8239 38.541 36.4667 39.2684 36.3221C39.9958 36.1774 40.7498 36.2516 41.4351 36.5355C42.1203 36.8193 42.706 37.2999 43.118 37.9166C43.5301 38.5333 43.75 39.2583 43.75 40C43.75 40.9946 43.3549 41.9484 42.6517 42.6517C41.9484 43.3549 40.9946 43.75 40 43.75ZM57.5 28.75H22.5C22.1685 28.75 21.8505 28.8817 21.6161 29.1161C21.3817 29.3505 21.25 29.6685 21.25 30V50C21.25 50.3315 21.3817 50.6495 21.6161 50.8839C21.8505 51.1183 22.1685 51.25 22.5 51.25H57.5C57.8315 51.25 58.1495 51.1183 58.3839 50.8839C58.6183 50.6495 58.75 50.3315 58.75 50V30C58.75 29.6685 58.6183 29.3505 58.3839 29.1161C58.1495 28.8817 57.8315 28.75 57.5 28.75ZM23.75 31.25H27.0891C26.4445 32.7494 25.2494 33.9445 23.75 34.5891V31.25ZM23.75 48.75V45.4109C25.2494 46.0555 26.4445 47.2506 27.0891 48.75H23.75ZM56.25 48.75H52.9109C53.5555 47.2506 54.7506 46.0555 56.25 45.4109V48.75ZM56.25 42.7578C54.8306 43.1775 53.5388 43.9456 52.4922 44.9922C51.4456 46.0388 50.6775 47.3306 50.2578 48.75H29.7422C29.3225 47.3306 28.5544 46.0388 27.5078 44.9922C26.4612 43.9456 25.1694 43.1775 23.75 42.7578V37.2422C25.1694 36.8225 26.4612 36.0544 27.5078 35.0078C28.5544 33.9612 29.3225 32.6694 29.7422 31.25H50.2578C50.6775 32.6694 51.4456 33.9612 52.4922 35.0078C53.5388 36.0544 54.8306 36.8225 56.25 37.2422V42.7578ZM56.25 34.5891C54.7506 33.9445 53.5555 32.7494 52.9109 31.25H56.25V34.5891Z" fill="#BEB459"/>
</svg>
